<?xml version="1.0" encoding="UTF-8"?>
<svg xmlns="http://www.w3.org/2000/svg" xmlns:xlink="http://www.w3.org/1999/xlink" width="115px" height="115px" viewBox="-6 -27 80.00 80.00" version="1.1">
<g id="surface1">
<path style=" stroke:none;fill-rule:nonzero;fill:rgb(53.72549%,84.313725%,70.980392%);fill-opacity:1;" d="M 25.46875 12.566406 C 25.300781 11.695312 24.445312 11.125 23.5625 11.289062 C 22.90625 11.414062 22.390625 11.921875 22.265625 12.566406 L 10.421875 12.566406 L 10.421875 13.164062 L 22.261719 13.164062 C 22.429688 14.035156 23.28125 14.605469 24.167969 14.441406 C 25.050781 14.273438 25.632812 13.433594 25.46875 12.566406 Z M 24.582031 13.570312 C 24.1875 13.960938 23.542969 13.960938 23.140625 13.570312 C 22.746094 13.179688 22.738281 12.546875 23.136719 12.15625 C 23.136719 12.15625 23.140625 12.148438 23.140625 12.148438 C 23.539062 11.761719 24.183594 11.761719 24.582031 12.148438 C 24.980469 12.546875 24.980469 13.179688 24.582031 13.570312 Z M 24.582031 13.570312 "/>
<path style=" stroke:none;fill-rule:nonzero;fill:rgb(53.72549%,84.313725%,70.980392%);fill-opacity:1;" d="M 14.371094 9.859375 C 14.371094 9.296875 14.839844 8.835938 15.417969 8.828125 L 18.027344 8.828125 C 18.195312 9.699219 19.046875 10.269531 19.929688 10.105469 C 20.816406 9.941406 21.394531 9.101562 21.226562 8.230469 C 21.058594 7.359375 20.207031 6.789062 19.320312 6.953125 C 18.667969 7.078125 18.148438 7.585938 18.027344 8.230469 L 15.414062 8.230469 C 14.5 8.230469 13.761719 8.960938 13.757812 9.859375 C 13.757812 10.425781 13.289062 10.886719 12.710938 10.890625 L 10.410156 10.890625 L 10.410156 11.488281 L 12.710938 11.488281 C 13.628906 11.488281 14.371094 10.761719 14.371094 9.859375 Z M 18.902344 7.828125 C 18.90625 7.824219 18.90625 7.824219 18.902344 7.828125 C 19.300781 7.433594 19.945312 7.433594 20.347656 7.824219 C 20.742188 8.214844 20.742188 8.851562 20.347656 9.246094 C 19.953125 9.636719 19.308594 9.636719 18.90625 9.246094 C 18.507812 8.855469 18.507812 8.21875 18.902344 7.828125 Z M 18.902344 7.828125 "/>
<path style=" stroke:none;fill-rule:nonzero;fill:rgb(53.72549%,84.313725%,70.980392%);fill-opacity:1;" d="M 19.328125 15.613281 C 18.671875 15.738281 18.15625 16.246094 18.03125 16.890625 L 15.417969 16.890625 C 14.84375 16.890625 14.375 16.429688 14.371094 15.859375 C 14.371094 14.960938 13.628906 14.234375 12.714844 14.230469 L 10.414062 14.230469 L 10.414062 14.828125 L 12.714844 14.828125 C 13.289062 14.828125 13.757812 15.289062 13.761719 15.859375 C 13.761719 16.761719 14.503906 17.484375 15.417969 17.488281 L 18.027344 17.488281 C 18.195312 18.359375 19.046875 18.933594 19.929688 18.765625 C 20.816406 18.601562 21.398438 17.761719 21.226562 16.890625 C 21.054688 16.019531 20.210938 15.449219 19.328125 15.613281 Z M 20.347656 17.898438 C 19.953125 18.289062 19.308594 18.289062 18.90625 17.898438 C 18.515625 17.511719 18.515625 16.875 18.90625 16.480469 C 19.300781 16.089844 19.945312 16.089844 20.347656 16.480469 C 20.742188 16.875 20.742188 17.511719 20.347656 17.898438 Z M 20.347656 17.898438 "/>
<path style=" stroke:none;fill-rule:nonzero;fill:rgb(53.72549%,84.313725%,70.980392%);fill-opacity:1;" d="M 16.347656 19.140625 C 15.703125 19.324219 15.238281 19.875 15.179688 20.53125 L 14.824219 20.53125 C 14.238281 20.53125 13.722656 20.171875 13.519531 19.636719 L 12.640625 17.304688 C 12.34375 16.535156 11.597656 16.019531 10.761719 16.019531 L 10.421875 16.019531 L 10.421875 16.621094 L 10.761719 16.621094 C 11.34375 16.621094 11.863281 16.980469 12.066406 17.515625 L 12.945312 19.84375 C 13.238281 20.613281 13.984375 21.128906 14.824219 21.128906 L 15.238281 21.128906 C 15.492188 21.980469 16.398438 22.46875 17.261719 22.226562 C 18.125 21.976562 18.621094 21.085938 18.371094 20.234375 C 18.117188 19.378906 17.210938 18.890625 16.347656 19.140625 Z M 17.519531 21.390625 C 17.125 21.78125 16.476562 21.78125 16.078125 21.390625 C 15.679688 21 15.675781 20.363281 16.070312 19.976562 C 16.070312 19.976562 16.078125 19.96875 16.078125 19.96875 C 16.472656 19.578125 17.117188 19.578125 17.519531 19.96875 C 17.914062 20.363281 17.914062 21 17.519531 21.390625 Z M 17.519531 21.390625 "/>
<path style=" stroke:none;fill-rule:nonzero;fill:rgb(53.72549%,84.313725%,70.980392%);fill-opacity:1;" d="M 12.640625 8.421875 L 13.519531 6.089844 C 13.722656 5.554688 14.242188 5.195312 14.824219 5.195312 L 15.179688 5.195312 C 15.265625 6.074219 16.058594 6.726562 16.949219 6.640625 C 17.84375 6.554688 18.503906 5.773438 18.417969 4.894531 C 18.332031 4.015625 17.539062 3.363281 16.644531 3.449219 C 15.980469 3.511719 15.421875 3.964844 15.234375 4.59375 L 14.816406 4.59375 C 13.980469 4.59375 13.234375 5.109375 12.9375 5.878906 L 12.058594 8.210938 C 11.855469 8.746094 11.335938 9.105469 10.753906 9.105469 L 10.414062 9.105469 L 10.414062 9.703125 L 10.753906 9.703125 C 11.597656 9.703125 12.34375 9.191406 12.640625 8.421875 Z M 16.070312 4.339844 C 16.070312 4.335938 16.078125 4.335938 16.070312 4.339844 C 16.472656 3.945312 17.117188 3.945312 17.519531 4.335938 C 17.914062 4.726562 17.914062 5.359375 17.519531 5.753906 C 17.125 6.144531 16.476562 6.144531 16.078125 5.753906 C 15.679688 5.363281 15.675781 4.730469 16.070312 4.339844 Z M 16.070312 4.339844 "/>
<path style=" stroke:none;fill-rule:nonzero;fill:rgb(53.72549%,84.313725%,70.980392%);fill-opacity:1;" d="M 7.890625 3.308594 C 6.785156 3.304688 5.886719 4.191406 5.878906 5.28125 C 5.878906 5.398438 5.890625 5.515625 5.910156 5.636719 C 4.300781 5.191406 2.628906 6.113281 2.183594 7.699219 C 2.035156 8.226562 2.035156 8.785156 2.183594 9.308594 C 1.050781 9.808594 0.542969 11.121094 1.054688 12.238281 C 1.183594 12.519531 1.371094 12.769531 1.601562 12.976562 C 0.910156 13.539062 0.507812 14.378906 0.507812 15.269531 C 0.507812 16.515625 1.296875 17.628906 2.476562 18.066406 L 2.476562 18.820312 C 2.476562 20.09375 3.523438 21.128906 4.820312 21.128906 C 5.230469 21.128906 5.636719 21.023438 5.992188 20.820312 C 6.960938 21.664062 8.445312 21.570312 9.304688 20.613281 C 9.679688 20.195312 9.886719 19.648438 9.886719 19.089844 L 9.886719 5.289062 C 9.890625 4.199219 9 3.316406 7.890625 3.308594 Z M 9.277344 19.085938 C 9.277344 20.03125 8.5 20.796875 7.546875 20.796875 C 7.164062 20.796875 6.792969 20.671875 6.488281 20.441406 C 6.925781 20.011719 7.171875 19.425781 7.171875 18.816406 C 7.171875 18.648438 7.03125 18.515625 6.867188 18.515625 C 6.699219 18.515625 6.5625 18.648438 6.5625 18.816406 C 6.5625 19.761719 5.785156 20.523438 4.824219 20.523438 C 3.863281 20.523438 3.085938 19.761719 3.085938 18.816406 L 3.085938 18.210938 C 3.234375 18.230469 3.382812 18.238281 3.527344 18.238281 C 3.695312 18.238281 3.832031 18.105469 3.832031 17.941406 C 3.832031 17.773438 3.695312 17.640625 3.527344 17.640625 C 2.195312 17.636719 1.117188 16.566406 1.121094 15.25 C 1.128906 13.945312 2.203125 12.890625 3.527344 12.878906 C 3.695312 12.878906 3.832031 12.746094 3.832031 12.578125 C 3.832031 12.414062 3.695312 12.28125 3.527344 12.28125 C 3.042969 12.28125 2.558594 12.394531 2.128906 12.621094 C 1.976562 12.511719 1.84375 12.371094 1.738281 12.214844 C 1.234375 11.46875 1.441406 10.46875 2.195312 9.976562 C 2.257812 9.929688 2.332031 9.894531 2.402344 9.859375 C 2.421875 9.898438 2.449219 9.941406 2.46875 9.984375 C 2.554688 10.128906 2.738281 10.175781 2.882812 10.09375 C 3.03125 10.011719 3.078125 9.828125 2.996094 9.683594 C 2.332031 8.546875 2.726562 7.089844 3.878906 6.433594 C 4.710938 5.964844 5.75 6.019531 6.519531 6.578125 C 6.65625 6.679688 6.84375 6.648438 6.945312 6.519531 C 7.046875 6.390625 7.019531 6.199219 6.886719 6.101562 C 6.808594 6.046875 6.738281 5.996094 6.65625 5.949219 C 6.28125 5.285156 6.523438 4.449219 7.199219 4.078125 C 7.875 3.710938 8.722656 3.949219 9.101562 4.613281 C 9.21875 4.820312 9.277344 5.050781 9.277344 5.28125 Z M 9.277344 19.085938 "/>
<path style=" stroke:none;fill-rule:nonzero;fill:rgb(53.72549%,84.313725%,70.980392%);fill-opacity:1;" d="M 8.394531 12.890625 C 8.394531 12.890625 8.390625 12.886719 8.390625 12.886719 C 8.113281 12.691406 7.785156 12.585938 7.445312 12.585938 C 7.511719 12.144531 7.390625 11.695312 7.109375 11.351562 C 7.003906 11.21875 6.816406 11.199219 6.683594 11.300781 C 6.550781 11.398438 6.53125 11.589844 6.632812 11.71875 C 6.632812 11.71875 6.632812 11.71875 6.632812 11.726562 C 6.859375 12.011719 6.917969 12.390625 6.773438 12.726562 C 6.125 13.015625 5.738281 13.691406 5.828125 14.386719 C 5.851562 14.550781 6.003906 14.664062 6.171875 14.644531 C 6.335938 14.625 6.453125 14.476562 6.433594 14.308594 C 6.414062 14.160156 6.429688 14.011719 6.476562 13.871094 C 6.652344 13.351562 7.222656 13.066406 7.753906 13.238281 C 7.851562 13.269531 7.941406 13.320312 8.027344 13.375 C 8.164062 13.476562 8.355469 13.445312 8.457031 13.308594 C 8.554688 13.175781 8.53125 12.988281 8.394531 12.890625 Z M 8.394531 12.890625 "/>
<path style=" stroke:none;fill-rule:nonzero;fill:rgb(53.72549%,84.313725%,70.980392%);fill-opacity:1;" d="M 3.890625 10.753906 C 4.082031 10.453125 4.140625 10.085938 4.046875 9.738281 C 4.007812 9.578125 3.839844 9.484375 3.675781 9.523438 C 3.515625 9.566406 3.417969 9.730469 3.457031 9.890625 C 3.542969 10.214844 3.382812 10.554688 3.078125 10.699219 C 2.925781 10.769531 2.863281 10.949219 2.933594 11.101562 C 3.007812 11.25 3.1875 11.308594 3.339844 11.238281 C 3.339844 11.238281 3.339844 11.238281 3.347656 11.238281 C 3.371094 11.230469 3.390625 11.214844 3.414062 11.203125 C 3.476562 11.328125 3.558594 11.441406 3.660156 11.539062 C 3.78125 11.65625 3.976562 11.65625 4.09375 11.535156 C 4.210938 11.414062 4.210938 11.226562 4.085938 11.109375 C 3.984375 11.015625 3.921875 10.890625 3.890625 10.753906 Z M 3.890625 10.753906 "/>
<path style=" stroke:none;fill-rule:nonzero;fill:rgb(53.72549%,84.313725%,70.980392%);fill-opacity:1;" d="M 5.648438 7.929688 C 6.03125 7.835938 6.421875 8.058594 6.519531 8.441406 C 6.546875 8.546875 6.550781 8.648438 6.53125 8.753906 C 6.515625 8.824219 6.488281 8.894531 6.453125 8.953125 C 6.375 9.101562 6.421875 9.28125 6.570312 9.363281 C 6.71875 9.445312 6.902344 9.394531 6.988281 9.25 C 6.988281 9.25 6.988281 9.246094 6.992188 9.246094 C 7.113281 9.023438 7.171875 8.78125 7.15625 8.535156 C 7.5 8.523438 7.824219 8.386719 8.070312 8.144531 C 8.1875 8.023438 8.179688 7.835938 8.058594 7.71875 C 7.9375 7.605469 7.75 7.609375 7.632812 7.726562 C 7.453125 7.90625 7.195312 7.976562 6.953125 7.914062 C 6.945312 7.90625 6.941406 7.898438 6.9375 7.890625 C 6.621094 7.425781 6.046875 7.210938 5.5 7.34375 C 5.335938 7.386719 5.242188 7.550781 5.28125 7.710938 C 5.316406 7.875 5.484375 7.976562 5.648438 7.929688 Z M 5.648438 7.929688 "/>
<path style=" stroke:none;fill-rule:nonzero;fill:rgb(53.72549%,84.313725%,70.980392%);fill-opacity:1;" d="M 6.546875 16.488281 C 6.15625 16.761719 5.640625 16.796875 5.214844 16.578125 C 5.117188 16.320312 4.964844 16.078125 4.769531 15.886719 C 4.652344 15.769531 4.457031 15.769531 4.335938 15.886719 C 4.214844 16 4.21875 16.191406 4.335938 16.308594 C 4.488281 16.460938 4.601562 16.644531 4.660156 16.851562 C 4.660156 16.859375 4.667969 16.871094 4.671875 16.878906 C 4.777344 17.273438 4.6875 17.699219 4.421875 18.015625 C 4.316406 18.144531 4.335938 18.335938 4.46875 18.433594 C 4.597656 18.539062 4.789062 18.519531 4.894531 18.394531 C 5.164062 18.074219 5.316406 17.671875 5.328125 17.253906 C 5.867188 17.394531 6.4375 17.296875 6.894531 16.980469 C 7.03125 16.886719 7.070312 16.699219 6.972656 16.558594 C 6.875 16.421875 6.683594 16.394531 6.546875 16.488281 Z M 6.546875 16.488281 "/>
</g>
</svg>
