<svg xmlns:dc="http://purl.org/dc/elements/1.1/" xmlns:cc="http://creativecommons.org/ns#" xmlns:rdf="http://www.w3.org/1999/02/22-rdf-syntax-ns#" xmlns:svg="http://www.w3.org/2000/svg" xmlns="http://www.w3.org/2000/svg" xmlns:sodipodi="http://sodipodi.sourceforge.net/DTD/sodipodi-0.dtd" xmlns:inkscape="http://www.inkscape.org/namespaces/inkscape" version="1.1" viewBox="-10 -16 64.00 64.00" x="0px" y="0px">
    <g transform="translate(0,-1020.3622)">
        <path style="color:#000000;font-style:normal;font-variant:normal;font-weight:normal;font-stretch:normal;font-size:medium;line-height:normal;font-family:sans-serif;text-indent:0;text-align:start;text-decoration:none;text-decoration-line:none;text-decoration-style:solid;text-decoration-color:#000000;letter-spacing:normal;word-spacing:normal;text-transform:none;direction:ltr;block-progression:tb;writing-mode:lr-tb;baseline-shift:baseline;text-anchor:start;white-space:normal;clip-rule:nonzero;display:inline;overflow:visible;visibility:visible;opacity:1;isolation:auto;mix-blend-mode:normal;color-interpolation:sRGB;color-interpolation-filters:linearRGB;solid-color:#89d7b5;solid-opacity:1;fill:#89d7b5;fill-opacity:1;fill-rule:nonzero;stroke:none;stroke-width:1;stroke-linecap:round;stroke-linejoin:round;stroke-miterlimit:4;stroke-dasharray:none;stroke-dashoffset:0;stroke-opacity:1;color-rendering:auto;image-rendering:auto;shape-rendering:auto;text-rendering:auto;enable-background:accumulate" d="m 12.76956,1023.37 c -1.13691,0.08 -2.19592,0.7149 -2.7890598,1.7422 -0.14249,0.2468 -0.23937,0.5067 -0.31641,0.7715 -1.30638,0.104 -2.50223,0.8 -3.22461,1.9082 -0.73754,1.1315 -0.88271,2.5417 -0.41601,3.7988 -2.1687704,1.2586 -3.1823204,3.9 -2.3164104,6.3028 0.3904,1.0833 1.11715,1.9473 2.0117204,2.5507 a 0.50004997,0.50004997 0 0 0 -0.0762,0.1719 c -0.3364904,1.4133 -0.0759,2.902 0.7207,4.1211 0.76986,1.1782 1.9785,2.0031 3.35742,2.3106 0.17118,0.4757 0.4446298,0.9192 0.8164098,1.291 1,1 2.50792,1.299 3.81445,0.7578 0.70802,-0.2932 1.27606,-0.8073 1.6543,-1.4375 0.37823,0.6302 0.94628,1.1443 1.6543,1.4375 1.30653,0.5412 2.81444,0.2422 3.81445,-0.7578 0.37283,-0.3729 0.64729,-0.8176 0.81836,-1.2949 1.37313,-0.31 2.57648,-1.1324 3.34375,-2.3067 0.79658,-1.2191 1.05719,-2.7078 0.7207,-4.1211 a 0.50004997,0.50004997 0 0 0 -0.0762,-0.1719 c 0.89457,-0.6034 1.62132,-1.4674 2.01172,-2.5507 0.86591,-2.4028 -0.14764,-5.0442 -2.31641,-6.3028 0.4667,-1.2571 0.32153,-2.6673 -0.41601,-3.7988 -0.71988,-1.1044 -1.90986,-1.8004 -3.21094,-1.9082 -0.0772,-0.2652 -0.17574,-0.5244 -0.31836,-0.7715 -0.79085,-1.3699 -2.40967,-2.0403 -3.9375,-1.6308 -0.9004,0.2411 -1.63198,0.827 -2.08789,1.5878 -0.45592,-0.7608 -1.18752,-1.3466 -2.08789,-1.5878 -0.38196,-0.1024 -0.76947,-0.1381 -1.14844,-0.1114 z m 0.0664,0.9981 c 0.27072,-0.019 0.54843,0.01 0.82226,0.08 1.07226,0.2872 1.81664,1.2399 1.84766,2.3437 -4.8e-4,0.024 -0.006,0.047 -0.006,0.07 l 0,0.5371 c -0.80031,0.1779 -1.63648,-0.04 -2.24023,-0.5996 a 0.50033037,0.50033035 0 0 0 -0.67969,0.7344 c 0.78967,0.7323 1.86766,1.0494 2.91992,0.8848 l 0,9.4668 a 0.49867311,0.50143073 59.999971 0 0 -0.0859,0.1777 c -0.11319,0.4178 -0.42849,0.7508 -0.83984,0.8887 -0.41133,0.1379 -0.86066,0.061 -1.20117,-0.2051 a 0.49962033,0.50238318 59.999971 0 0 -0.61914,0.7891 c 0.30191,0.2355 0.65393,0.3872 1.02148,0.4492 0.36753,0.063 0.75055,0.036 1.11523,-0.086 0.22304,-0.075 0.42343,-0.1919 0.60938,-0.3262 l 0,1.5078 a 0.50005,0.50005 0 0 0 0.0117,0.1133 l 0,2.0918 a 0.50005,0.50005 0 0 0 -0.01159,0.1152 l 0,2.4629 c 0,0.026 0.005,0.052 0.006,0.078 -0.0308,0.9805 -0.62612,1.8532 -1.53711,2.2304 -0.93553,0.3875 -2.00859,0.175 -2.72461,-0.541 -0.71599,-0.7161 -0.93043,-1.7892 -0.54297,-2.7246 0.0818,-0.1974 0.19201,-0.3774 0.31641,-0.543 a 0.50143069,0.49867303 59.999978 0 0 0.0391,-0.01 c 0.42772,-0.06 0.85721,0.1007 1.14453,0.4258 0.28729,0.325 0.39012,0.7712 0.2793,1.1895 a 0.50217895,0.49941717 59.999978 1 0 0.9668,0.2617 c 0.19649,-0.7416 0.007,-1.537 -0.50196,-2.1133 -0.23161,-0.2621 -0.51971,-0.4541 -0.83203,-0.5859 0.28194,-0.1086 0.58426,-0.1719 0.89844,-0.1719 a 0.50005,0.50005 0 1 0 0,-1 c -1.41423,0 -2.69321,0.8536 -3.2343798,2.1602 -0.18946,0.4574 -0.2706,0.9377 -0.25976,1.414 -0.9468,-0.3121 -1.77101,-0.9134 -2.31641,-1.748 -0.63333,-0.9693 -0.8419,-2.142 -0.5957,-3.2657 1.04448,0.4438 2.22798,0.5734 3.3984398,0.2598 a 0.50029326,0.50029326 0 0 0 -0.2578198,-0.9668 c -2.13797,0.5729 -4.3472404,-0.5817 -5.0976504,-2.664 -0.75044,-2.0823 0.21459,-4.382 2.2265604,-5.3047 a 0.50005,0.50005 0 0 0 0.16016,-0.8008 0.50005,0.50005 0 0 0 -0.01,-0.023 c -0.44362,-1.0056 -0.34827,-2.1652 0.25195,-3.086 0.51188,-0.7853 1.33223,-1.3015 2.24414,-1.4375 0.008,0.6095 0.1762,1.2095 0.4921898,1.7422 -0.4917098,0.047 -0.9749498,0.1859 -1.4140598,0.4395 a 0.50050869,0.50050871 0 0 0 0.5,0.8672 c 0.68355,-0.3947 1.5111698,-0.4444 2.2363298,-0.1328 0.72516,0.3116 1.25925,0.9454 1.44336,1.7129 a 0.50025653,0.50025654 0 0 0 0.97265,-0.2325 c -0.1288,-0.5366 -0.38017,-1.0283 -0.72656,-1.4394 -0.34638,-0.4112 -0.78782,-0.7411 -1.29492,-0.959 -0.12142,-0.052 -0.24996,-0.074 -0.375,-0.1113 a 0.50005,0.50005 0 0 0 -0.11133,-0.1582 c -0.8018,-0.8018 -0.9654,-2.0356 -0.39844,-3.0176 0.42523,-0.7365 1.17807,-1.1882 1.99024,-1.2442 z m 6.33984,0 c 0.81216,0.056 1.565,0.5075 1.99024,1.2441 0.33426,0.579 0.41219,1.2467 0.25781,1.8613 a 0.50022978,0.50022978 0 0 0 0.9707,0.2422 c 0.0667,-0.2654 0.0905,-0.5386 0.0937,-0.8125 0.90795,0.1383 1.72435,0.6531 2.23438,1.4356 0.60022,0.9208 0.69557,2.0803 0.25195,3.0859 a 0.50005,0.50005 0 0 0 -0.01,0.023 0.50005,0.50005 0 0 0 0.16016,0.8008 c 2.01197,0.9227 2.977,3.2224 2.22656,5.3047 -0.75041,2.0823 -2.95968,3.2369 -5.09765,2.664 a 0.50029326,0.50029326 0 0 0 -0.25782,0.9668 c 1.17046,0.3136 2.35396,0.1841 3.39844,-0.2597 0.2462,1.1237 0.0376,2.2963 -0.5957,3.2656 -0.54325,0.8314 -1.36263,1.4328 -2.30469,1.7461 0.0106,-0.4757 -0.0706,-0.9553 -0.25976,-1.4121 -0.54119,-1.3065 -1.82015,-2.1602 -3.23438,-2.1602 a 0.50005,0.50005 0 1 0 0,1 c 1.01261,0 1.92306,0.6076 2.31055,1.543 0.38748,0.9355 0.17306,2.0084 -0.54297,2.7246 -0.71603,0.716 -1.78908,0.9285 -2.72461,0.541 -0.91099,-0.3772 -1.5063,-1.2499 -1.53711,-2.2304 6e-4,-0.026 0.006,-0.052 0.006,-0.078 l 0,-0.1622 a 0.50005001,0.50004999 0 0 1 0.002,0 c 0.82352,-0.2107 1.69501,0.012 2.31836,0.5899 a 0.50026798,0.50026796 0 1 0 0.68164,-0.7324 c -0.80997,-0.7508 -1.92437,-1.0676 -3.00195,-0.8731 l 0,-6.6992 c 0.15492,0.063 0.31425,0.1149 0.47851,0.1426 0.36754,0.062 0.75059,0.036 1.11524,-0.086 0.72934,-0.2445 1.2896,-0.8396 1.49023,-1.5801 a 0.49867311,0.50143073 59.999971 1 0 -0.96679,-0.2559 c -0.11315,0.4176 -0.42654,0.7508 -0.83789,0.8887 -0.41132,0.1378 -0.86259,0.061 -1.20313,-0.2051 a 0.49867311,0.50143073 59.999971 0 0 -0.0762,-0.051 l 0,-6.1093 c 0.70009,0.2042 1.47846,0.067 2.07422,-0.4082 0.0249,-0.02 0.0444,-0.044 0.0684,-0.065 a 0.50025015,0.50025016 0 0 0 0.0449,-0.023 c 0.86273,-0.5289 1.95428,-0.4866 2.77344,0.1074 a 0.5006713,0.50067131 0 0 0 0.58789,-0.8106 c -0.779,-0.5649 -1.73838,-0.7636 -2.65235,-0.6054 0.0765,-0.4258 0.0419,-0.872 -0.13476,-1.2891 a 0.4986731,0.50143074 45 1 0 -0.92188,0.3926 c 0.22607,0.5338 0.0686,1.1504 -0.38672,1.5137 -0.42343,0.3379 -0.99679,0.3612 -1.45312,0.092 l 0,-2.7735 c 0,-0.024 -0.005,-0.047 -0.006,-0.07 0.031,-1.1038 0.77544,-2.0566 1.84766,-2.3437 0.27382,-0.073 0.55154,-0.099 0.82226,-0.08 z m 0,8.4922 a 0.50211662,0.49845596 60.001308 0 0 -0.12305,0.9882 c 1.10963,0.2621 2.05685,0.9913 2.60938,2.0118 a 0.50196667,0.49830709 60.001308 0 0 0.0469,0.07 c -0.0519,0.3969 -0.0377,0.8036 0.0527,1.2089 -0.24132,0.091 -0.47041,0.2071 -0.66602,0.3692 -0.28708,0.2378 -0.51642,0.5455 -0.66015,0.9004 a 0.50179568,0.49903605 0 0 0 0.93164,0.3711 c 0.16208,-0.4002 0.51233,-0.693 0.9375,-0.7793 0.42518,-0.086 0.86504,0.046 1.17187,0.3515 a 0.50143073,0.4986731 0 1 0 0.70899,-0.705 c -0.3892,-0.3871 -0.90212,-0.6087 -1.4375,-0.6524 -0.27627,-1.0858 0.19712,-2.2177 1.16992,-2.7793 a 0.50004999,0.50005001 0 0 0 -0.36133,-0.9238 0.50004999,0.50005001 0 0 0 -0.13867,0.057 c -0.57622,0.3327 -1.01809,0.8158 -1.31836,1.373 -0.70231,-0.9196 -1.69279,-1.5804 -2.82422,-1.8476 a 0.50211662,0.49845596 60.001308 0 0 -0.0996,-0.014 z m -11.5683598,0.2382 a 0.49867303,0.50143069 30.000022 0 0 -0.40625,0.8243 c 0.26569,0.3406 0.34291,0.7918 0.20508,1.2031 -0.13793,0.4114 -0.47093,0.7247 -0.88867,0.8379 a 0.49867303,0.50143069 30.000022 1 0 0.25586,0.9668 c 0.52981,-0.1435 0.97967,-0.4762 1.28515,-0.918 1.07772,0.3041 1.82033,1.2817 1.82032,2.4043 a 0.50005001,0.50004999 0 0 0 0.9804698,0.1465 0.50005001,0.50004999 0 0 0 0.0215,-0.1485 c 0,-0.2026 -0.019,-0.401 -0.0527,-0.5957 a 0.50007067,0.50007067 0 0 0 0.0547,-0.1757 c 0.14229,-1.2995 1.24797,-2.2638 2.55469,-2.2266 a 0.50021458,0.50021458 0 1 0 0.0293,-1 c -1.40812,-0.04 -2.65401,0.7707 -3.24024,1.9766 -0.4330498,-0.6091 -1.0579898,-1.0749 -1.8027298,-1.3086 0.042,-0.2541 0.0581,-0.5096 0.0156,-0.7598 -0.0624,-0.3675 -0.21578,-0.7176 -0.45117,-1.0195 a 0.49867303,0.50143069 30.000022 0 0 -0.38086,-0.2071 z"/>
    </g>
    <style type="text/css">
	.st0{fill:#030102;}
</style></svg>