<?xml version="1.0" encoding="utf-8"?>
<svg viewBox="29.7024 65.3641 182.8896 240.2559" width="182.89px" height="240.256px" xmlns="http://www.w3.org/2000/svg">
  <path d="M 1213.3,2707.85 H 547.266 c -39.352,0 -71.551,32.19 -71.551,71.55 v 3.33 c 0,39.35 32.199,71.55 71.551,71.55 H 1213.3 c 39.35,0 71.55,-32.2 71.55,-71.55 v -3.33 c 0,-39.36 -32.2,-71.55 -71.55,-71.55" style="fill:#595d5f;fill-opacity:1;fill-rule:nonzero;stroke:none" id="path18" transform="matrix(0.13333332737286874, 0, 0, -0.13333332737286874, 0, 666.6666870117188)"/>
  <path d="m 917.363,4147.75 c -15.289,0 -27.687,12.4 -27.687,27.69 v 225.78 c 0,15.3 12.398,27.69 27.687,27.69 15.293,0 27.692,-12.39 27.692,-27.69 v -225.78 c 0,-15.29 -12.399,-27.69 -27.692,-27.69" style="fill:#47323f;fill-opacity:1;fill-rule:nonzero;stroke:none" id="path26" transform="matrix(0.13333332737286874, 0, 0, -0.13333332737286874, 0, 666.6666870117188)"/>
  <path d="m 475.453,3225.18 c -10.246,0 -19.66,5.66 -24.465,14.72 l -152.816,288.3 c -7.164,13.52 -2.016,30.27 11.496,37.44 13.508,7.16 30.266,2.01 37.434,-11.5 l 127.726,-240.97 104.121,206.65 c 6.879,13.67 23.543,19.15 37.188,12.27 13.656,-6.88 19.148,-23.53 12.269,-37.18 L 500.18,3240.41 c -4.66,-9.24 -14.086,-15.12 -24.442,-15.23 -0.093,0 -0.191,0 -0.285,0" style="fill:#47323f;fill-opacity:1;fill-rule:nonzero;stroke:none" id="path28" transform="matrix(0.13333332737286874, 0, 0, -0.13333332737286874, 0, 666.6666870117188)"/>
  <path d="m 548.672,3260.13 c 0,-40.44 -32.781,-73.22 -73.219,-73.22 -40.437,0 -73.215,32.78 -73.215,73.22 0,40.44 32.778,73.22 73.215,73.22 40.438,0 73.219,-32.78 73.219,-73.22" style="fill:#e6e8b5;fill-opacity:1;fill-rule:nonzero;stroke:none" id="path30" transform="matrix(0.13333332737286874, 0, 0, -0.13333332737286874, 0, 666.6666870117188)"/>
  <path d="m 327.34,3584.63 c -5.215,0 -10.211,2.96 -12.559,8 -30.843,66.19 2.328,147.49 3.758,150.92 2.934,7.06 11.043,10.42 18.102,7.46 7.05,-2.94 10.39,-11.03 7.464,-18.09 v 0 c -0.3,-0.73 -29.859,-73.58 -4.226,-128.59 3.23,-6.93 0.226,-15.17 -6.703,-18.4 -1.891,-0.88 -3.879,-1.3 -5.836,-1.3" style="fill:#f6f2d8;fill-opacity:1;fill-rule:nonzero;stroke:none" id="path32" transform="matrix(0.13333332737286874, 0, 0, -0.13333332737286874, 0, 666.6666870117188)"/>
  <path d="m 305.949,3583.37 c -4.086,0 -8.129,1.79 -10.859,5.24 -45.371,57.21 -31.996,143.99 -31.406,147.66 1.218,7.55 8.293,12.68 15.875,11.46 7.543,-1.21 12.671,-8.32 11.464,-15.86 -0.14,-0.89 -11.921,-78.53 25.762,-126.05 4.75,-5.99 3.746,-14.7 -2.246,-19.45 -2.543,-2.02 -5.578,-3 -8.59,-3" style="fill:#f6f2d8;fill-opacity:1;fill-rule:nonzero;stroke:none" id="path34" transform="matrix(0.13333332737286874, 0, 0, -0.13333332737286874, 0, 666.6666870117188)"/>
  <path d="m 275.293,3562.38 c -3.75,0 -7.488,1.51 -10.215,4.49 -49.305,53.87 -42.09,141.38 -41.758,145.08 0.688,7.61 7.422,13.17 15.028,12.55 7.613,-0.68 13.23,-7.4 12.554,-15.02 -0.097,-1.16 -6.281,-79.25 34.598,-123.91 5.164,-5.64 4.773,-14.4 -0.867,-19.56 -2.656,-2.43 -6,-3.63 -9.34,-3.63" style="fill:#f6f2d8;fill-opacity:1;fill-rule:nonzero;stroke:none" id="path36" transform="matrix(0.13333332737286874, 0, 0, -0.13333332737286874, 0, 666.6666870117188)"/>
  <path d="m 363.961,3577.39 c -7.648,0 -13.848,6.2 -13.848,13.84 0,7.65 6.2,13.85 13.848,13.85 6.82,0 12.039,2.17 16.426,6.84 13.879,14.77 15,48.81 14.261,60.68 -0.476,7.63 5.317,14.21 12.938,14.69 7.617,0.5 14.199,-5.29 14.691,-12.91 0.368,-5.57 2.832,-55.23 -21.664,-81.37 -9.578,-10.22 -22.25,-15.62 -36.652,-15.62" style="fill:#f6f2d8;fill-opacity:1;fill-rule:nonzero;stroke:none" id="path38" transform="matrix(0.13333332737286874, 0, 0, -0.13333332737286874, 0, 666.6666870117188)"/>
  <path d="m 312.285,3526.98 h 3.149 c 37.109,0 67.472,30.36 67.472,67.47 v 12.78 c 0,37.11 -30.363,67.48 -67.472,67.48 h -3.149 c -37.109,0 -67.472,-30.37 -67.472,-67.48 v -12.78 c 0,-37.11 30.363,-67.47 67.472,-67.47" style="fill:#47323f;fill-opacity:1;fill-rule:nonzero;stroke:none" id="path40" transform="matrix(0.13333332737286874, 0, 0, -0.13333332737286874, 0, 666.6666870117188)"/>
  <path d="m 1341.75,3225.18 c -0.09,0 -0.19,0 -0.28,0 -10.36,0.11 -19.78,5.99 -24.45,15.23 l -128.22,254.5 c -6.88,13.65 -1.39,30.3 12.27,37.18 13.64,6.89 30.31,1.39 37.19,-12.27 l 104.12,-206.65 127.72,240.97 c 7.16,13.51 23.91,18.66 37.44,11.5 13.51,-7.17 18.65,-23.92 11.49,-37.44 l -152.81,-288.3 c -4.81,-9.06 -14.22,-14.72 -24.47,-14.72" style="fill:#47323f;fill-opacity:1;fill-rule:nonzero;stroke:none" id="path42" transform="matrix(0.13333332737286874, 0, 0, -0.13333332737286874, 0, 666.6666870117188)"/>
  <path d="m 1268.54,3260.13 c 0,-40.44 32.78,-73.22 73.21,-73.22 40.44,0 73.22,32.78 73.22,73.22 0,40.44 -32.78,73.22 -73.22,73.22 -40.43,0 -73.21,-32.78 -73.21,-73.22" style="fill:#e6e8b5;fill-opacity:1;fill-rule:nonzero;stroke:none" id="path44" transform="matrix(0.13333332737286874, 0, 0, -0.13333332737286874, 0, 666.6666870117188)"/>
  <path d="m 1489.87,3584.63 c -1.96,0 -3.95,0.42 -5.84,1.3 -6.93,3.23 -9.93,11.47 -6.7,18.4 25.74,55.24 -3.92,127.85 -4.22,128.58 -2.94,7.06 0.4,15.16 7.46,18.1 7.06,2.96 15.16,-0.4 18.1,-7.46 1.43,-3.43 34.6,-84.73 3.76,-150.92 -2.35,-5.04 -7.35,-8 -12.56,-8" style="fill:#f6f2d8;fill-opacity:1;fill-rule:nonzero;stroke:none" id="path46" transform="matrix(0.13333332737286874, 0, 0, -0.13333332737286874, 0, 666.6666870117188)"/>
  <path d="m 1511.26,3583.37 c -3.01,0 -6.05,0.98 -8.59,3 -6,4.75 -7,13.46 -2.25,19.45 37.87,47.75 25.89,125.26 25.76,126.04 -1.21,7.55 3.92,14.65 11.47,15.87 7.55,1.21 14.65,-3.91 15.87,-11.46 0.59,-3.67 13.97,-90.45 -31.41,-147.66 -2.73,-3.45 -6.77,-5.24 -10.85,-5.24" style="fill:#f6f2d8;fill-opacity:1;fill-rule:nonzero;stroke:none" id="path48" transform="matrix(0.13333332737286874, 0, 0, -0.13333332737286874, 0, 666.6666870117188)"/>
  <path d="m 1541.91,3562.38 c -3.33,0 -6.68,1.2 -9.34,3.63 -5.64,5.16 -6.03,13.92 -0.86,19.56 41.15,44.96 34.67,123.12 34.6,123.9 -0.69,7.62 4.93,14.35 12.55,15.03 7.61,0.68 14.34,-4.94 15.03,-12.55 0.33,-3.7 7.54,-91.21 -41.76,-145.08 -2.73,-2.98 -6.47,-4.49 -10.22,-4.49" style="fill:#f6f2d8;fill-opacity:1;fill-rule:nonzero;stroke:none" id="path50" transform="matrix(0.13333332737286874, 0, 0, -0.13333332737286874, 0, 666.6666870117188)"/>
  <path d="m 1453.25,3577.39 c -14.41,0 -27.08,5.4 -36.66,15.62 -24.49,26.14 -22.03,75.8 -21.66,81.37 0.49,7.63 7.04,13.4 14.71,12.92 7.62,-0.5 13.4,-7.07 12.92,-14.7 v 0 c -0.74,-11.87 0.38,-45.91 14.26,-60.68 4.39,-4.67 9.61,-6.84 16.43,-6.84 7.64,0 13.84,-6.2 13.84,-13.85 0,-7.64 -6.2,-13.84 -13.84,-13.84" style="fill:#f6f2d8;fill-opacity:1;fill-rule:nonzero;stroke:none" id="path52" transform="matrix(0.13333332737286874, 0, 0, -0.13333332737286874, 0, 666.6666870117188)"/>
  <path d="m 1504.92,3526.98 h -3.15 c -37.11,0 -67.47,30.36 -67.47,67.47 v 12.78 c 0,37.11 30.36,67.48 67.47,67.48 h 3.15 c 37.11,0 67.47,-30.37 67.47,-67.48 v -12.78 c 0,-37.11 -30.36,-67.47 -67.47,-67.47" style="fill:#47323f;fill-opacity:1;fill-rule:nonzero;stroke:none" id="path54" transform="matrix(0.13333332737286874, 0, 0, -0.13333332737286874, 0, 666.6666870117188)"/>
  <path d="m 1020.94,2885.38 c -15.29,0 -27.682,12.4 -27.682,27.69 v 420.21 c 0,15.29 12.392,27.69 27.682,27.69 15.3,0 27.69,-12.4 27.69,-27.69 v -420.21 c 0,-15.29 -12.39,-27.69 -27.69,-27.69" style="fill:#47323f;fill-opacity:1;fill-rule:nonzero;stroke:none" id="path56" transform="matrix(0.13333332737286874, 0, 0, -0.13333332737286874, 0, 666.6666870117188)"/>
  <path d="m 779.359,2885.38 c -15.293,0 -27.691,12.4 -27.691,27.69 v 420.21 c 0,15.29 12.398,27.69 27.691,27.69 15.289,0 27.688,-12.4 27.688,-27.69 v -420.21 c 0,-15.29 -12.399,-27.69 -27.688,-27.69" style="fill:#47323f;fill-opacity:1;fill-rule:nonzero;stroke:none" id="path58" transform="matrix(0.13333332737286874, 0, 0, -0.13333332737286874, 0, 666.6666870117188)"/>
  <path d="m 777.887,2970.27 h 2.941 c 34.719,0 63.125,-28.4 63.125,-63.12 v -62.96 c 0,-34.72 -28.406,-63.13 -63.125,-63.13 h -2.941 c -34.719,0 -63.125,28.41 -63.125,63.13 v 62.96 c 0,34.72 28.406,63.12 63.125,63.12" style="fill:#e6e8b5;fill-opacity:1;fill-rule:nonzero;stroke:none" id="path60" transform="matrix(0.13333332737286874, 0, 0, -0.13333332737286874, 0, 666.6666870117188)"/>
  <path d="m 888.66,2828.68 v -2.94 c 0,-34.72 -28.406,-63.12 -63.125,-63.12 h -92.351 c -34.719,0 -63.125,28.4 -63.125,63.12 v 2.94 c 0,34.72 28.406,63.13 63.125,63.13 h 92.351 c 34.719,0 63.125,-28.41 63.125,-63.13" style="fill:#47323f;fill-opacity:1;fill-rule:nonzero;stroke:none" id="path62" transform="matrix(0.13333332737286874, 0, 0, -0.13333332737286874, 0, 666.6666870117188)"/>
  <path d="m 1019.47,2970.27 h 2.95 c 34.72,0 63.12,-28.4 63.12,-63.12 v -62.96 c 0,-34.72 -28.4,-63.13 -63.12,-63.13 h -2.95 c -34.712,0 -63.118,28.41 -63.118,63.13 v 62.96 c 0,34.72 28.406,63.12 63.118,63.12" style="fill:#e6e8b5;fill-opacity:1;fill-rule:nonzero;stroke:none" id="path64" transform="matrix(0.13333332737286874, 0, 0, -0.13333332737286874, 0, 666.6666870117188)"/>
  <path d="m 1130.25,2828.68 v -2.94 c 0,-34.72 -28.41,-63.12 -63.13,-63.12 h -92.35 c -34.719,0 -63.125,28.4 -63.125,63.12 v 2.94 c 0,34.72 28.406,63.13 63.125,63.13 h 92.35 c 34.72,0 63.13,-28.41 63.13,-63.13" style="fill:#47323f;fill-opacity:1;fill-rule:nonzero;stroke:none" id="path66" transform="matrix(0.13333332737286874, 0, 0, -0.13333332737286874, 0, 666.6666870117188)"/>
  <path d="m 584.355,4174.59 v -258.94 c 0,-59.88 38.641,-108.42 86.309,-108.42 h 483.476 c 47.67,0 86.32,48.54 86.32,108.42 v 258.94 c 0,59.87 -38.65,108.41 -86.32,108.41 H 670.664 c -47.668,0 -86.309,-48.54 -86.309,-108.41" style="fill:#68b59a;fill-opacity:1;fill-rule:nonzero;stroke:none" id="path68" transform="matrix(0.13333332737286874, 0, 0, -0.13333332737286874, 0, 666.6666870117188)"/>
  <path d="M 959.145,3726.04 H 753.004 c -47.668,0 -86.313,-34.32 -86.313,-76.67 V 3219.9 c 0,-42.34 38.645,-76.67 86.313,-76.67 h 206.141 c 47.665,0 86.305,34.33 86.305,76.67 v 429.47 c 0,42.35 -38.64,76.67 -86.305,76.67" style="fill:#68b59a;fill-opacity:1;fill-rule:nonzero;stroke:none" id="path70" transform="matrix(0.13333332737286874, 0, 0, -0.13333332737286874, 0, 666.6666870117188)"/>
  <path d="M 1071.81,3726.04 H 865.668 c -47.668,0 -86.309,-34.32 -86.309,-76.67 V 3219.9 c 0,-42.34 38.641,-76.67 86.309,-76.67 h 206.142 c 47.67,0 86.31,34.33 86.31,76.67 v 429.47 c 0,42.35 -38.64,76.67 -86.31,76.67" style="fill:#68b59a;fill-opacity:1;fill-rule:nonzero;stroke:none" id="path72" transform="matrix(0.13333332737286874, 0, 0, -0.13333332737286874, 0, 666.6666870117188)"/>
  <path d="M 988.359,3740.54 H 836.453 c -17.922,0 -32.59,14.66 -32.59,32.59 v 1.52 c 0,17.92 14.668,32.58 32.59,32.58 h 151.906 c 17.921,0 32.591,-14.66 32.591,-32.58 v -1.52 c 0,-17.93 -14.67,-32.59 -32.591,-32.59" style="fill:#47323f;fill-opacity:1;fill-rule:nonzero;stroke:none" id="path74" transform="matrix(0.13333332737286874, 0, 0, -0.13333332737286874, 0, 666.6666870117188)"/>
  <path d="M 1211.45,3501.99 H 623.281 c -62.699,0 -114,51.29 -114,113.99 v 5.32 c 0,62.7 51.301,113.99 114,113.99 h 588.169 c 62.69,0 113.99,-51.29 113.99,-113.99 v -5.32 c 0,-62.7 -51.3,-113.99 -113.99,-113.99" style="fill:#68b59a;fill-opacity:1;fill-rule:nonzero;stroke:none" id="path76" transform="matrix(0.13333332737286874, 0, 0, -0.13333332737286874, 0, 666.6666870117188)"/>
  <path d="m 989.961,4437.16 c 0,-40.09 -32.504,-72.59 -72.598,-72.59 -40.097,0 -72.601,32.5 -72.601,72.59 0,40.1 32.504,72.61 72.601,72.61 40.094,0 72.598,-32.51 72.598,-72.61" style="fill:#d42936;fill-opacity:1;fill-rule:nonzero;stroke:none" id="path78" transform="matrix(0.13333332737286874, 0, 0, -0.13333332737286874, 0, 666.6666870117188)"/>
  <path d="M 1106.75,3591.23 H 736.207 c -28.254,0 -51.371,23.12 -51.371,51.38 v 2.39 c 0,28.25 23.117,51.37 51.371,51.37 h 370.543 c 28.25,0 51.37,-23.12 51.37,-51.37 v -2.39 c 0,-28.26 -23.12,-51.38 -51.37,-51.38" style="fill:#47323f;fill-opacity:1;fill-rule:nonzero;stroke:none" id="path80" transform="matrix(0.13333332737286874, 0, 0, -0.13333332737286874, 0, 666.6666870117188)"/>
  <path d="m 839.828,3642.58 c 0,-17.74 -14.383,-32.12 -32.125,-32.12 -17.738,0 -32.121,14.38 -32.121,32.12 0,17.75 14.383,32.13 32.121,32.13 17.742,0 32.125,-14.38 32.125,-32.13" style="fill:#f7ab0d;fill-opacity:1;fill-rule:nonzero;stroke:none" id="path82" transform="matrix(0.13333332737286874, 0, 0, -0.13333332737286874, 0, 666.6666870117188)"/>
  <path d="m 1053.07,3642.58 c 0,-17.74 -14.38,-32.12 -32.12,-32.12 -17.75,0 -32.126,14.38 -32.126,32.12 0,17.75 14.376,32.13 32.126,32.13 17.74,0 32.12,-14.38 32.12,-32.13" style="fill:#f7ab0d;fill-opacity:1;fill-rule:nonzero;stroke:none" id="path84" transform="matrix(0.13333332737286874, 0, 0, -0.13333332737286874, 0, 666.6666870117188)"/>
  <path d="m 944.527,3642.58 c 0,-17.74 -14.379,-32.12 -32.121,-32.12 -17.742,0 -32.125,14.38 -32.125,32.12 0,17.75 14.383,32.13 32.125,32.13 17.742,0 32.121,-14.38 32.121,-32.13" style="fill:#ac2865;fill-opacity:1;fill-rule:nonzero;stroke:none" id="path86" transform="matrix(0.13333332737286874, 0, 0, -0.13333332737286874, 0, 666.6666870117188)"/>
  <path d="M 1065.97,3310.21 H 748.816 v 200.86 h 317.154 v -200.86" style="fill:#802b56;fill-opacity:1;fill-rule:nonzero;stroke:none" id="path88" transform="matrix(0.13333332737286874, 0, 0, -0.13333332737286874, 0, 666.6666870117188)"/>
  <path d="m 876.535,4079.5 c 0,-59.33 -48.097,-107.43 -107.433,-107.43 -59.332,0 -107.434,48.1 -107.434,107.43 0,59.34 48.102,107.44 107.434,107.44 59.336,0 107.433,-48.1 107.433,-107.44" style="fill:#e6e8b5;fill-opacity:1;fill-rule:nonzero;stroke:none" id="path90" transform="matrix(0.13333332737286874, 0, 0, -0.13333332737286874, 0, 666.6666870117188)"/>
  <path d="m 852.262,4079.5 c 0,-45.93 -37.231,-83.16 -83.16,-83.16 -45.93,0 -83.161,37.23 -83.161,83.16 0,45.93 37.231,83.16 83.161,83.16 45.929,0 83.16,-37.23 83.16,-83.16" style="fill:#47323f;fill-opacity:1;fill-rule:nonzero;stroke:none" id="path92" transform="matrix(0.13333332737286874, 0, 0, -0.13333332737286874, 0, 666.6666870117188)"/>
  <path d="m 1163.14,4079.5 c 0,-59.33 -48.1,-107.43 -107.43,-107.43 -59.335,0 -107.433,48.1 -107.433,107.43 0,59.34 48.098,107.44 107.433,107.44 59.33,0 107.43,-48.1 107.43,-107.44" style="fill:#e6e8b5;fill-opacity:1;fill-rule:nonzero;stroke:none" id="path94" transform="matrix(0.13333332737286874, 0, 0, -0.13333332737286874, 0, 666.6666870117188)"/>
  <path d="m 1138.87,4079.5 c 0,-45.93 -37.23,-83.16 -83.16,-83.16 -45.93,0 -83.163,37.23 -83.163,83.16 0,45.93 37.233,83.16 83.163,83.16 45.93,0 83.16,-37.23 83.16,-83.16" style="fill:#47323f;fill-opacity:1;fill-rule:nonzero;stroke:none" id="path96" transform="matrix(0.13333332737286874, 0, 0, -0.13333332737286874, 0, 666.6666870117188)"/>
  <path d="m 917.363,3852.83 c -45.203,0 -81.98,36.78 -81.98,81.98 0,15.29 12.394,27.69 27.687,27.69 15.293,0 27.692,-12.4 27.692,-27.69 0,-14.67 11.933,-26.6 26.601,-26.6 14.668,0 26.602,11.93 26.602,26.6 0,15.29 12.398,27.69 27.687,27.69 15.293,0 27.692,-12.4 27.692,-27.69 0,-45.2 -36.774,-81.98 -81.981,-81.98" style="fill:#47323f;fill-opacity:1;fill-rule:nonzero;stroke:none" id="path98" transform="matrix(0.13333332737286874, 0, 0, -0.13333332737286874, 0, 666.6666870117188)"/>
  <path d="m 547.676,3934.81 h -1.711 c -20.176,0 -36.684,16.51 -36.684,36.68 v 154.49 c 0,20.18 16.508,36.68 36.684,36.68 h 1.711 c 20.172,0 36.679,-16.5 36.679,-36.68 v -154.49 c 0,-20.17 -16.507,-36.68 -36.679,-36.68" style="fill:#47323f;fill-opacity:1;fill-rule:nonzero;stroke:none" id="path100" transform="matrix(0.13333332737286874, 0, 0, -0.13333332737286874, 0, 666.6666870117188)"/>
  <path d="m 1278.85,3934.81 h -1.71 c -20.18,0 -36.68,16.51 -36.68,36.68 v 154.49 c 0,20.18 16.5,36.68 36.68,36.68 h 1.71 c 20.17,0 36.68,-16.5 36.68,-36.68 v -154.49 c 0,-20.17 -16.51,-36.68 -36.68,-36.68" style="fill:#47323f;fill-opacity:1;fill-rule:nonzero;stroke:none" id="path102" transform="matrix(0.13333332737286874, 0, 0, -0.13333332737286874, 0, 666.6666870117188)"/>
  <path d="M 1032.12,3447.91 H 788.914 c -7.332,0 -13.332,6 -13.332,13.33 v 0.63 c 0,7.33 6,13.33 13.332,13.33 h 243.206 c 7.33,0 13.33,-6 13.33,-13.33 v -0.63 c 0,-7.33 -6,-13.33 -13.33,-13.33" style="fill:#47323f;fill-opacity:1;fill-rule:nonzero;stroke:none" id="path104" transform="matrix(0.13333332737286874, 0, 0, -0.13333332737286874, 0, 666.6666870117188)"/>
  <path d="M 1032.12,3397 H 788.914 c -7.332,0 -13.332,6 -13.332,13.33 v 0.62 c 0,7.33 6,13.33 13.332,13.33 h 243.206 c 7.33,0 13.33,-6 13.33,-13.33 v -0.62 c 0,-7.33 -6,-13.33 -13.33,-13.33" style="fill:#47323f;fill-opacity:1;fill-rule:nonzero;stroke:none" id="path106" transform="matrix(0.13333332737286874, 0, 0, -0.13333332737286874, 0, 666.6666870117188)"/>
  <path d="M 1032.12,3340.24 H 788.914 c -7.332,0 -13.332,6 -13.332,13.33 v 0.62 c 0,7.33 6,13.33 13.332,13.33 h 243.206 c 7.33,0 13.33,-6 13.33,-13.33 v -0.62 c 0,-7.33 -6,-13.33 -13.33,-13.33" style="fill:#47323f;fill-opacity:1;fill-rule:nonzero;stroke:none" id="path108" transform="matrix(0.13333332737286874, 0, 0, -0.13333332737286874, 0, 666.6666870117188)"/>
</svg>